# xmcd CD database file
#
# Track frame offsets:
#	150
#	12770
#	26005
#	49450
#	66060
#	79043
#	91825
#	108733
#	124688
#	149425
#
# Disc length: 2182 seconds
#
# Revision: 0
# Processed by: cddbd v1.5PL3 Copyright (c) Steve Scherf et al.
# Submitted via: CDex 1.51
#
DISCID=8308840a
DTITLE=Motorhead - MOTOR-X'MAS
DYEAR=1900
DGENRE=Heavy Metal
TTITLE0=ACE OF SPADES
TTITLE1=DIRTY LOVE
TTITLE2=OVERKILL
TTITLE3=BOMBER
TTITLE4=IRON FIST
TTITLE5=STAY CLEAN
TTITLE6=IRON HORSE
TTITLE7=JAILBAIT
TTITLE8=ANOTHER PERFECT DAY
TTITLE9=(WE ARE) THE ROAD CREW
EXTD=
EXTT0=
EXTT1=
EXTT2=
EXTT3=
EXTT4=
EXTT5=
EXTT6=
EXTT7=
EXTT8=
EXTT9=
PLAYORDER=
